<?xml version="1.0" standalone="no"?>
<!DOCTYPE svg PUBLIC "-//W3C//DTD SVG 20010904//EN"
 "http://www.w3.org/TR/2001/REC-SVG-20010904/DTD/svg10.dtd">
<svg version="1.0" xmlns="http://www.w3.org/2000/svg"
 width="1620.000000pt" height="2160.000000pt" viewBox="0 0 1620.000000 2160.000000"
 preserveAspectRatio="xMidYMid meet">

<g transform="translate(0.000000,2160.000000) scale(0.100000,-0.100000)"
fill="#000000" stroke="none">
<path d="M7687 13990 c-21 -4 -54 -21 -75 -39 -175 -150 -219 -178 -792 -523
-381 -229 -562 -329 -927 -513 -289 -145 -393 -203 -566 -318 -62 -40 -130
-84 -151 -97 -55 -33 -236 -177 -334 -267 -95 -86 -195 -203 -269 -315 -50
-74 -57 -88 -54 -115 2 -25 61 -15 84 14 76 93 279 248 487 371 123 73 329
174 450 222 58 23 182 79 275 125 94 45 267 129 385 185 118 56 247 117 285
135 103 50 389 211 468 263 37 24 71 42 74 38 3 -3 -13 -32 -35 -63 -107 -148
-190 -274 -295 -449 -63 -104 -131 -216 -152 -249 -38 -59 -388 -573 -541
-794 l-79 -115 -181 -87 c-100 -48 -244 -109 -320 -134 -235 -78 -602 -261
-934 -466 -68 -41 -265 -187 -345 -254 -127 -107 -356 -374 -500 -585 -180
-265 -246 -471 -200 -624 34 -111 93 -176 207 -224 58 -24 75 -26 198 -26 146
0 187 8 415 81 203 65 313 133 571 349 302 253 376 330 685 714 278 345 487
642 748 1065 68 110 131 205 139 212 8 7 45 22 81 34 36 12 114 46 173 75 63
32 110 50 113 44 4 -6 -5 -61 -19 -123 -29 -129 -50 -351 -41 -417 17 -113 65
-164 205 -215 55 -20 101 -28 175 -32 114 -6 180 5 263 44 60 28 162 119 162
145 0 24 -54 41 -113 36 -37 -3 -66 -13 -98 -34 -47 -32 -87 -51 -133 -65 -24
-7 -33 -4 -58 22 l-31 30 7 97 c10 131 33 291 57 382 11 41 42 172 69 290 27
118 54 231 60 250 6 19 22 91 36 160 24 120 35 166 90 365 14 50 45 168 69
263 25 95 71 253 104 350 33 97 85 260 116 362 31 102 72 223 92 270 47 113
49 126 26 138 -27 14 -83 19 -126 12z m-574 -1289 c-4 -3 -13 -24 -19 -46 -7
-22 -39 -119 -73 -215 -84 -238 -105 -300 -136 -403 -23 -76 -31 -91 -57 -105
-17 -10 -73 -43 -124 -75 -52 -32 -99 -57 -104 -55 -6 2 26 66 71 143 115 199
157 272 289 515 154 283 154 283 158 264 2 -9 0 -19 -5 -23z m-1359 -1449 c3
-5 -45 -82 -107 -173 -202 -297 -293 -420 -502 -679 -77 -96 -160 -202 -185
-235 -150 -202 -284 -349 -510 -563 -232 -219 -295 -263 -477 -339 -148 -61
-171 -63 -217 -22 -21 18 -51 59 -68 92 -100 198 -1 474 318 894 100 131 270
294 434 416 80 60 153 115 163 124 11 8 35 24 55 35 21 11 49 29 64 40 15 10
101 54 190 97 306 147 371 175 523 224 61 19 151 49 200 65 102 33 112 35 119
24z"/>
<path d="M9985 13969 c-393 -29 -736 -76 -947 -130 -234 -59 -598 -215 -773
-329 -157 -103 -260 -238 -234 -308 7 -19 15 -22 65 -22 l56 0 91 93 c105 106
190 166 339 236 365 174 798 246 1473 246 299 0 312 -1 383 -24 147 -48 210
-115 219 -234 17 -202 -173 -525 -431 -737 -140 -113 -715 -474 -731 -458 -2
2 10 55 26 118 16 63 39 169 50 235 35 197 17 294 -72 390 -87 94 -226 132
-373 102 -88 -18 -303 -117 -404 -186 -198 -134 -385 -336 -496 -535 -111
-199 -51 -355 159 -415 81 -24 234 -40 373 -41 117 0 142 -3 142 -14 0 -20
-104 -238 -174 -366 -162 -293 -310 -460 -409 -460 -44 0 -169 71 -228 129
-52 53 -83 105 -138 234 -20 46 -21 47 -65 47 l-46 0 -2 -57 c-4 -106 2 -147
32 -211 52 -112 177 -219 309 -264 55 -19 86 -23 191 -23 115 0 132 3 214 33
212 76 335 193 529 502 68 108 252 465 271 526 5 16 33 30 114 60 213 77 713
344 1007 540 437 289 702 664 656 925 -22 122 -88 195 -247 273 -130 64 -264
105 -409 126 -81 11 -360 11 -520 -1z m-797 -942 c26 -31 41 -124 31 -193 -22
-156 -72 -313 -187 -587 -64 -151 -68 -158 -102 -169 -20 -6 -125 -13 -245
-15 -200 -3 -213 -2 -264 19 -79 34 -114 81 -119 163 -4 55 0 73 26 129 134
287 413 525 752 640 87 30 94 30 108 13z"/>
<path d="M9831 12166 c-65 -23 -49 -48 44 -68 54 -12 63 -18 91 -59 17 -26 50
-102 73 -169 120 -352 297 -553 541 -616 92 -24 293 -24 380 0 106 29 185 72
245 133 63 65 72 99 28 109 -16 3 -36 8 -45 10 -29 8 -98 -16 -147 -52 -107
-76 -192 -94 -267 -56 -47 24 -143 119 -206 204 -24 31 -72 110 -108 175 -35
65 -83 147 -106 183 -102 157 -216 221 -392 219 -53 0 -112 -6 -131 -13z"/>
<path d="M9302 10910 c-25 -15 -44 -44 -81 -123 -59 -123 -101 -216 -101 -222
0 -2 -11 -28 -24 -58 -14 -29 -46 -104 -71 -167 -44 -107 -64 -155 -86 -205
-25 -57 -159 -416 -199 -535 -16 -47 -54 -157 -84 -245 -30 -88 -68 -198 -86
-245 -17 -47 -47 -132 -67 -190 -44 -130 -79 -210 -91 -210 -5 0 -24 7 -42 17
-47 23 -117 27 -172 10 l-48 -15 0 49 c0 58 -14 69 -93 69 -72 0 -86 -16 -94
-108 -3 -38 -3 -81 1 -96 14 -56 125 -74 216 -35 l48 21 42 -28 c31 -20 58
-29 108 -33 51 -5 67 -10 66 -21 -1 -8 -15 -98 -32 -200 -94 -567 -107 -862
-61 -1340 33 -338 99 -555 197 -640 41 -37 49 -40 103 -40 65 0 72 8 34 38
-14 11 -33 39 -43 63 -96 225 -105 721 -22 1329 6 41 15 109 20 150 17 130 40
282 60 393 5 31 14 81 19 110 58 328 146 666 294 1132 79 247 163 490 227 655
165 425 255 682 246 705 -14 38 -130 48 -184 15z"/>
<path d="M10085 10697 c-17 -8 -42 -30 -57 -49 -25 -33 -110 -195 -141 -268
-8 -19 -24 -55 -35 -80 -11 -25 -47 -117 -80 -205 -33 -88 -92 -240 -131 -338
-73 -185 -131 -354 -161 -472 -10 -38 -25 -95 -33 -125 -16 -61 -45 -187 -76
-330 -35 -160 -70 -355 -101 -562 -32 -215 -56 -793 -40 -976 26 -315 74 -453
206 -586 123 -126 242 -176 419 -176 97 0 183 11 230 30 72 29 85 36 85 42 0
5 7 8 15 8 8 0 15 7 15 15 0 19 -33 19 -96 -1 -84 -27 -158 -43 -193 -44 -118
-1 -271 109 -326 235 -57 127 -80 334 -72 640 7 268 24 418 87 793 5 31 14 84
19 117 6 33 15 86 21 118 5 31 14 81 19 110 28 155 83 404 128 577 19 74 38
149 42 165 5 17 49 154 99 305 82 249 113 345 142 450 20 72 84 279 121 394
41 123 48 186 25 205 -22 18 -98 23 -131 8z"/>
<path d="M6470 10563 c-78 -40 -125 -160 -225 -573 -31 -129 -61 -248 -66
-265 -5 -16 -52 -183 -105 -370 -52 -187 -97 -341 -99 -343 -2 -2 -61 19 -132
46 -203 80 -381 106 -558 83 -246 -33 -406 -137 -525 -341 -42 -71 -106 -206
-129 -270 -7 -19 -17 -44 -22 -55 -34 -82 -69 -251 -76 -376 -12 -214 47 -349
197 -452 25 -17 47 -34 48 -39 4 -9 102 -11 102 -3 0 3 -29 39 -64 79 -86 99
-106 154 -106 291 0 235 100 522 270 775 222 330 475 363 888 117 60 -36 61
-42 33 -150 -11 -39 -38 -155 -61 -257 -42 -184 -47 -206 -70 -310 -14 -62
-28 -128 -40 -180 -74 -330 -104 -461 -110 -490 -4 -19 -18 -78 -30 -130 -31
-135 -61 -285 -81 -412 -15 -92 -10 -101 62 -118 60 -15 126 0 157 34 11 11
43 64 72 116 29 52 63 113 75 136 35 63 111 187 200 329 110 175 356 569 387
623 l25 43 48 -113 c43 -104 117 -311 136 -383 4 -16 17 -66 29 -110 12 -44
26 -98 31 -120 6 -22 14 -56 18 -75 5 -19 12 -51 16 -70 3 -19 10 -53 15 -75
5 -22 13 -65 19 -95 93 -466 108 -523 145 -563 35 -37 98 -52 165 -39 81 17
107 49 148 182 19 61 32 110 83 323 18 75 76 354 114 552 26 132 37 188 46
230 5 22 14 67 20 100 6 33 16 78 20 100 5 22 11 51 13 65 8 45 45 223 72 345
15 66 36 161 47 210 17 78 35 158 68 305 31 137 123 554 132 595 5 28 14 68
19 90 5 22 14 65 20 95 6 30 14 73 19 95 4 22 19 96 33 165 43 215 58 323 55
394 -3 62 -6 71 -30 89 -34 25 -126 34 -187 17 -91 -24 -200 -157 -498 -610
-74 -113 -153 -231 -174 -263 -21 -32 -39 -60 -39 -62 0 -3 -47 -77 -105 -165
-58 -89 -105 -163 -105 -166 0 -3 -13 -24 -29 -47 -28 -41 -153 -243 -175
-282 -6 -11 -47 -79 -90 -152 l-79 -132 -51 67 c-28 37 -87 104 -132 150 l-82
83 15 52 c8 29 18 66 23 82 13 43 27 95 39 135 5 19 19 67 31 105 18 58 116
400 150 525 77 279 140 599 140 707 0 82 -2 91 -24 112 -34 32 -100 38 -146
14z m1310 -463 c0 -5 -4 -29 -10 -52 -5 -24 -26 -117 -46 -208 -19 -91 -44
-203 -55 -250 -22 -92 -39 -166 -64 -275 -9 -38 -20 -86 -25 -105 -5 -19 -13
-55 -19 -80 -5 -25 -14 -65 -20 -90 -22 -98 -50 -221 -75 -335 -15 -66 -36
-156 -46 -200 -10 -44 -24 -107 -30 -140 -7 -33 -16 -73 -20 -90 -4 -16 -13
-57 -20 -90 -6 -33 -16 -78 -21 -100 -5 -22 -25 -123 -44 -225 -20 -102 -40
-205 -46 -230 -11 -53 -38 -187 -49 -245 -9 -48 -42 -205 -70 -335 -12 -52
-24 -107 -27 -122 -7 -35 -19 -28 -26 14 -36 199 -45 247 -72 373 -22 105 -43
188 -87 340 -53 187 -138 405 -228 586 l-48 96 104 169 c56 93 136 221 176
284 40 63 78 123 84 135 9 18 82 133 149 235 24 37 90 142 275 435 89 142 250
382 335 501 11 16 25 18 25 4z m-1543 -1580 c25 -33 68 -93 94 -134 l47 -74
-43 -76 c-24 -42 -53 -89 -64 -105 -12 -16 -21 -32 -21 -35 0 -3 -19 -36 -43
-73 -24 -37 -89 -142 -146 -233 -117 -189 -129 -206 -136 -198 -6 5 68 299
185 743 17 61 37 140 46 178 10 37 21 67 26 67 4 0 29 -27 55 -60z"/>
<path d="M11095 9573 c-11 -2 -30 -6 -42 -8 -12 -3 -46 -36 -77 -78 -79 -105
-288 -350 -438 -514 -110 -120 -135 -143 -159 -143 -27 0 -29 3 -29 39 0 54
-26 71 -104 71 l-59 0 -56 -60 c-80 -88 -109 -103 -191 -101 -51 1 -72 -2 -84
-14 -46 -47 12 -79 144 -81 52 0 104 -5 116 -12 12 -6 77 -11 165 -10 178 0
195 6 307 115 45 43 82 74 82 67 0 -6 -32 -79 -71 -160 -40 -82 -98 -207 -131
-279 -32 -71 -76 -159 -97 -195 -117 -198 -222 -463 -199 -504 13 -23 83 -39
139 -31 38 5 53 13 70 36 17 25 160 312 232 469 86 187 149 310 156 306 5 -3
11 -20 15 -37 15 -75 143 -138 325 -161 228 -28 698 37 739 102 7 12 10 26 6
31 -20 33 -142 51 -185 29 -23 -13 -302 -40 -405 -40 -82 0 -177 16 -216 36
-55 28 -28 119 62 210 45 46 76 68 153 108 51 27 57 49 22 72 -51 33 -126 23
-245 -34 -58 -27 -117 -53 -132 -56 -34 -8 -37 -17 67 199 102 211 175 366
175 371 0 2 13 32 29 66 60 133 63 160 19 177 -34 12 -80 18 -103 14z m-305
-1053 c0 -5 -5 -10 -11 -10 -5 0 -7 5 -4 10 3 6 8 10 11 10 2 0 4 -4 4 -10z"/>
</g>
</svg>
